<?xml version="1.0" encoding="UTF-8" standalone="no"?>
<!DOCTYPE svg PUBLIC "-//W3C//DTD SVG 1.1//EN" "http://www.w3.org/Graphics/SVG/1.1/DTD/svg11.dtd">
<svg width="100%" height="100%" viewBox="0 0 1804 1804" version="1.1" xmlns="http://www.w3.org/2000/svg" xmlns:xlink="http://www.w3.org/1999/xlink" xml:space="preserve" xmlns:serif="http://www.serif.com/" style="fill-rule:evenodd;clip-rule:evenodd;stroke-linecap:round;stroke-linejoin:round;stroke-miterlimit:1.5;">
    <g id="Layer1">
        <circle cx="902" cy="902" r="900" style="fill:white;stroke:rgb(255,0,0);stroke-width:2.08px;"/>
        <g>
            <g transform="matrix(29.166667,0,0,29.166667,1129.294844,1706.509767)">
            </g>
            <text x="673.61px" y="1706.51px" style="font-family:'DejaVuSans', 'DejaVu Sans', sans-serif;font-size:29.167px;fill:rgb(45,41,38);">©<tspan x="703.068px 721.916px 740.765px 759.613px 778.461px 788.024px 797.587px 820.48px 838.716px 857.493px 875.729px 888.012px 906.177px 914.572px 924.135px 941.503px 953.145px 971.381px 987.708px 996.103px 1011.591px 1019.986px 1038.122px 1056.899px 1066.462px 1076.025px 1084.919px 1103.696px 1120.024px " y="1706.51px 1706.51px 1706.51px 1706.51px 1706.51px 1706.51px 1706.51px 1706.51px 1706.51px 1706.51px 1706.51px 1706.51px 1706.51px 1706.51px 1706.51px 1706.51px 1706.51px 1706.51px 1706.51px 1706.51px 1706.51px 1706.51px 1706.51px 1706.51px 1706.51px 1706.51px 1706.51px 1706.51px 1706.51px ">1963, General Precision, Inc.</tspan></text>
            <g transform="matrix(25,0,0,25,950.551314,1771.337371)">
            </g>
            <text x="852.353px" y="1771.337px" style="font-family:'DejaVuSans', 'DejaVu Sans', sans-serif;font-size:25px;fill:rgb(45,41,38);">S<tspan x="868.472px 886.178px 902.334px 918.49px 934.646px " y="1771.337px 1771.337px 1771.337px 1771.337px 1771.337px ">C2058</tspan></text>
        </g>
        <g>
            <g transform="matrix(29.166667,0,0,29.166667,888.893514,1492.726697)">
            </g>
            <text x="783.351px" y="1492.727px" style="font-family:'DejaVuSans', 'DejaVu Sans', sans-serif;font-size:29.167px;fill:rgb(45,41,38);">O<tspan x="806.6px 827.157px 849.908px 868.628px " y="1492.727px 1492.727px 1492.727px 1492.727px ">RDER</tspan></text>
            <g transform="matrix(29.166667,0,0,29.166667,1110.036092,1492.726697)">
            </g>
            <text x="1013.038px" y="1492.727px" style="font-family:'DejaVuSans', 'DejaVu Sans', sans-serif;font-size:29.167px;fill:rgb(45,41,38);">T<tspan x="1031.146px 1050.521px 1070.253px 1090.91px " y="1492.727px 1492.727px 1492.727px 1492.727px ">RACK</tspan></text>
            <g transform="matrix(29.166667,0,0,29.166667,1330.088338,1492.726697)">
            </g>
            <text x="1210.283px" y="1492.727px" style="font-family:'DejaVuSans', 'DejaVu Sans', sans-serif;font-size:29.167px;fill:rgb(45,41,38);">S<tspan x="1229.089px 1247.809px 1268.466px 1286.574px 1309.823px " y="1492.727px 1492.727px 1492.727px 1492.727px 1492.727px ">ECTOR</tspan></text>
            <rect x="770.75" y="1461.11" width="131.25" height="42" style="fill:none;stroke:rgb(45,41,38);stroke-width:4.17px;stroke-linecap:butt;stroke-linejoin:miter;stroke-miterlimit:3;"/>
            <rect x="967.625" y="1461.11" width="196.875" height="42" style="fill:none;stroke:rgb(45,41,38);stroke-width:4.17px;stroke-linecap:butt;stroke-linejoin:miter;stroke-miterlimit:3;"/>
            <rect x="1164.5" y="1461.11" width="196.875" height="42" style="fill:none;stroke:rgb(45,41,38);stroke-width:4.17px;stroke-linecap:butt;stroke-linejoin:miter;stroke-miterlimit:3;"/>
            <g>
                <path d="M409.812,1569.11L409.812,1545.11" style="fill:none;stroke:rgb(45,41,38);stroke-width:4.17px;stroke-linecap:butt;stroke-linejoin:miter;stroke-miterlimit:3;"/>
                <path d="M442.625,1569.11L442.625,1545.11" style="fill:none;stroke:rgb(45,41,38);stroke-width:4.17px;stroke-linecap:butt;stroke-linejoin:miter;stroke-miterlimit:3;"/>
                <path d="M475.438,1569.11L475.438,1545.11" style="fill:none;stroke:rgb(45,41,38);stroke-width:4.17px;stroke-linecap:butt;stroke-linejoin:miter;stroke-miterlimit:3;"/>
                <path d="M508.25,1569.11L508.25,1530.11" style="fill:none;stroke:rgb(45,41,38);stroke-width:4.17px;stroke-linecap:butt;stroke-linejoin:miter;stroke-miterlimit:3;"/>
                <path d="M541.062,1569.11L541.062,1545.11" style="fill:none;stroke:rgb(45,41,38);stroke-width:4.17px;stroke-linecap:butt;stroke-linejoin:miter;stroke-miterlimit:3;"/>
                <path d="M573.875,1569.11L573.875,1545.11" style="fill:none;stroke:rgb(45,41,38);stroke-width:4.17px;stroke-linecap:butt;stroke-linejoin:miter;stroke-miterlimit:3;"/>
                <path d="M606.688,1569.11L606.688,1545.11" style="fill:none;stroke:rgb(45,41,38);stroke-width:4.17px;stroke-linecap:butt;stroke-linejoin:miter;stroke-miterlimit:3;"/>
                <path d="M639.5,1569.11L639.5,1530.11" style="fill:none;stroke:rgb(45,41,38);stroke-width:4.17px;stroke-linecap:butt;stroke-linejoin:miter;stroke-miterlimit:3;"/>
                <path d="M672.312,1569.11L672.312,1545.11" style="fill:none;stroke:rgb(45,41,38);stroke-width:4.17px;stroke-linecap:butt;stroke-linejoin:miter;stroke-miterlimit:3;"/>
                <path d="M705.125,1569.11L705.125,1545.11" style="fill:none;stroke:rgb(45,41,38);stroke-width:4.17px;stroke-linecap:butt;stroke-linejoin:miter;stroke-miterlimit:3;"/>
                <path d="M737.938,1569.11L737.938,1545.11" style="fill:none;stroke:rgb(45,41,38);stroke-width:4.17px;stroke-linecap:butt;stroke-linejoin:miter;stroke-miterlimit:3;"/>
                <path d="M770.75,1569.11L770.75,1530.11" style="fill:none;stroke:rgb(45,41,38);stroke-width:4.17px;stroke-linecap:butt;stroke-linejoin:miter;stroke-miterlimit:3;"/>
                <path d="M803.563,1569.11L803.563,1545.11" style="fill:none;stroke:rgb(45,41,38);stroke-width:4.17px;stroke-linecap:butt;stroke-linejoin:miter;stroke-miterlimit:3;"/>
                <path d="M836.375,1569.11L836.375,1545.11" style="fill:none;stroke:rgb(45,41,38);stroke-width:4.17px;stroke-linecap:butt;stroke-linejoin:miter;stroke-miterlimit:3;"/>
                <path d="M869.188,1569.11L869.188,1545.11" style="fill:none;stroke:rgb(45,41,38);stroke-width:4.17px;stroke-linecap:butt;stroke-linejoin:miter;stroke-miterlimit:3;"/>
                <path d="M902,1569.11L902,1530.11" style="fill:none;stroke:rgb(45,41,38);stroke-width:4.17px;stroke-linecap:butt;stroke-linejoin:miter;stroke-miterlimit:3;"/>
                <path d="M934.813,1569.11L934.813,1545.11" style="fill:none;stroke:rgb(45,41,38);stroke-width:4.17px;stroke-linecap:butt;stroke-linejoin:miter;stroke-miterlimit:3;"/>
                <path d="M967.625,1569.11L967.625,1545.11" style="fill:none;stroke:rgb(45,41,38);stroke-width:4.17px;stroke-linecap:butt;stroke-linejoin:miter;stroke-miterlimit:3;"/>
                <path d="M1000.438,1569.11L1000.438,1545.11" style="fill:none;stroke:rgb(45,41,38);stroke-width:4.17px;stroke-linecap:butt;stroke-linejoin:miter;stroke-miterlimit:3;"/>
                <path d="M1033.25,1569.11L1033.25,1530.11" style="fill:none;stroke:rgb(45,41,38);stroke-width:4.17px;stroke-linecap:butt;stroke-linejoin:miter;stroke-miterlimit:3;"/>
                <path d="M1066.062,1569.11L1066.062,1545.11" style="fill:none;stroke:rgb(45,41,38);stroke-width:4.17px;stroke-linecap:butt;stroke-linejoin:miter;stroke-miterlimit:3;"/>
                <path d="M1098.875,1569.11L1098.875,1545.11" style="fill:none;stroke:rgb(45,41,38);stroke-width:4.17px;stroke-linecap:butt;stroke-linejoin:miter;stroke-miterlimit:3;"/>
                <path d="M1131.688,1569.11L1131.688,1545.11" style="fill:none;stroke:rgb(45,41,38);stroke-width:4.17px;stroke-linecap:butt;stroke-linejoin:miter;stroke-miterlimit:3;"/>
                <path d="M1164.5,1569.11L1164.5,1530.11" style="fill:none;stroke:rgb(45,41,38);stroke-width:4.17px;stroke-linecap:butt;stroke-linejoin:miter;stroke-miterlimit:3;"/>
                <path d="M1197.313,1569.11L1197.313,1545.11" style="fill:none;stroke:rgb(45,41,38);stroke-width:4.17px;stroke-linecap:butt;stroke-linejoin:miter;stroke-miterlimit:3;"/>
                <path d="M1230.125,1569.11L1230.125,1545.11" style="fill:none;stroke:rgb(45,41,38);stroke-width:4.17px;stroke-linecap:butt;stroke-linejoin:miter;stroke-miterlimit:3;"/>
                <path d="M1262.938,1569.11L1262.938,1545.11" style="fill:none;stroke:rgb(45,41,38);stroke-width:4.17px;stroke-linecap:butt;stroke-linejoin:miter;stroke-miterlimit:3;"/>
                <path d="M1295.75,1569.11L1295.75,1530.11" style="fill:none;stroke:rgb(45,41,38);stroke-width:4.17px;stroke-linecap:butt;stroke-linejoin:miter;stroke-miterlimit:3;"/>
                <path d="M1328.563,1569.11L1328.563,1545.11" style="fill:none;stroke:rgb(45,41,38);stroke-width:4.17px;stroke-linecap:butt;stroke-linejoin:miter;stroke-miterlimit:3;"/>
                <path d="M1361.375,1569.11L1361.375,1545.11" style="fill:none;stroke:rgb(45,41,38);stroke-width:4.17px;stroke-linecap:butt;stroke-linejoin:miter;stroke-miterlimit:3;"/>
                <path d="M1394.188,1569.11L1394.188,1545.11" style="fill:none;stroke:rgb(45,41,38);stroke-width:4.17px;stroke-linecap:butt;stroke-linejoin:miter;stroke-miterlimit:3;"/>
            </g>
            <rect x="377" y="1461.11" width="1050" height="108" style="fill:none;stroke:rgb(45,41,38);stroke-width:4.17px;stroke-linecap:butt;stroke-linejoin:miter;stroke-miterlimit:3;"/>
            <g>
                <g transform="matrix(29.166667,0,0,29.166667,402.691732,1596.12042)">
                </g>
                <text x="384.135px" y="1596.12px" style="font-family:'DejaVuSans', 'DejaVu Sans', sans-serif;font-size:29.167px;fill:rgb(45,41,38);">0</text>
                <g transform="matrix(29.166667,0,0,29.166667,501.179077,1596.12042)">
                </g>
                <text x="482.622px" y="1596.12px" style="font-family:'DejaVuSans', 'DejaVu Sans', sans-serif;font-size:29.167px;fill:rgb(45,41,38);">3</text>
                <g transform="matrix(29.166667,0,0,29.166667,632.421956,1596.12042)">
                </g>
                <text x="613.865px" y="1596.12px" style="font-family:'DejaVuSans', 'DejaVu Sans', sans-serif;font-size:29.167px;fill:rgb(45,41,38);">7</text>
                <g transform="matrix(29.166667,0,0,29.166667,772.789958,1596.12042)">
                </g>
                <text x="735.385px" y="1596.12px" style="font-family:'DejaVuSans', 'DejaVu Sans', sans-serif;font-size:29.167px;fill:rgb(45,41,38);">1<tspan x="754.233px " y="1596.12px ">1</tspan></text>
                <g transform="matrix(29.166667,0,0,29.166667,903.96875,1596.12042)">
                </g>
                <text x="866.564px" y="1596.12px" style="font-family:'DejaVuSans', 'DejaVu Sans', sans-serif;font-size:29.167px;fill:rgb(45,41,38);">1<tspan x="885.412px " y="1596.12px ">5</tspan></text>
                <g transform="matrix(29.166667,0,0,29.166667,1034.969523,1596.12042)">
                </g>
                <text x="997.564px" y="1596.12px" style="font-family:'DejaVuSans', 'DejaVu Sans', sans-serif;font-size:29.167px;fill:rgb(45,41,38);">1<tspan x="1016.413px " y="1596.12px ">9</tspan></text>
                <g transform="matrix(29.166667,0,0,29.166667,1166.895996,1596.12042)">
                </g>
                <text x="1129.491px" y="1596.12px" style="font-family:'DejaVuSans', 'DejaVu Sans', sans-serif;font-size:29.167px;fill:rgb(45,41,38);">2<tspan x="1148.339px " y="1596.12px ">3</tspan></text>
                <g transform="matrix(29.166667,0,0,29.166667,1298.224325,1596.12042)">
                </g>
                <text x="1260.819px" y="1596.12px" style="font-family:'DejaVuSans', 'DejaVu Sans', sans-serif;font-size:29.167px;fill:rgb(45,41,38);">2<tspan x="1279.668px " y="1596.12px ">7</tspan></text>
                <g transform="matrix(29.166667,0,0,29.166667,1429.531291,1596.12042)">
                </g>
                <text x="1392.126px" y="1596.12px" style="font-family:'DejaVuSans', 'DejaVu Sans', sans-serif;font-size:29.167px;fill:rgb(45,41,38);">3<tspan x="1410.975px " y="1596.12px ">1</tspan></text>
            </g>
            <rect x="377" y="1461.076" width="32.812" height="46.93" style="fill:none;stroke:rgb(45,41,38);stroke-width:4.17px;stroke-linecap:butt;stroke-linejoin:miter;stroke-miterlimit:3;"/>
            <g transform="matrix(41.666667,0,0,41.666667,1108.11944,1427.924479)">
            </g>
            <text x="702.76px" y="1427.924px" style="font-family:'DejaVuSans', 'DejaVu Sans', sans-serif;font-size:41.667px;fill:rgb(0,119,207);">W<tspan x="744.375px 777.588px 806.956px 839.457px 853.118px 879.983px 905.851px 935.219px 966.133px 995.643px 1021.511px 1052.425px 1081.793px " y="1427.924px 1427.924px 1427.924px 1427.924px 1427.924px 1427.924px 1427.924px 1427.924px 1427.924px 1427.924px 1427.924px 1427.924px 1427.924px ">ORD STRUCTURE</tspan></text>
            <g transform="matrix(1.2384,0,0,1.2384,-1010.231344,-3689.057505)">
                <text x="1123.562px" y="4182.797px" style="font-family:'DejaVuSans', 'DejaVu Sans', sans-serif;font-size:23.552px;fill:rgb(45,41,38);">+</text>
                <g transform="matrix(23.551903,0,0,23.551903,1140.920918,4192.890883)">
                </g>
                <text x="1125.936px" y="4192.891px" style="font-family:'DejaVuSans', 'DejaVu Sans', sans-serif;font-size:23.552px;fill:rgb(45,41,38);">‒</text>
            </g>
        </g>
        <g>
            <g transform="matrix(1,0,0,0.909091,0,-245.148127)">
                <g transform="matrix(45.833333,0,0,45.833333,1051.66772,833.154061)">
                </g>
                <text x="771.266px" y="833.154px" style="font-family:'DejaVuSans', 'DejaVu Sans', sans-serif;font-size:45.833px;fill:rgb(0,119,207);">C<tspan x="803.727px 840.261px 880.264px 920.267px 952.08px 986.823px 1022.574px " y="833.154px 833.154px 833.154px 833.154px 833.154px 833.154px 833.154px ">OMMANDS</tspan></text>
            </g>
            <rect x="149.042" y="463.326" width="1505.916" height="897.829" style="fill:none;stroke:rgb(45,41,38);stroke-width:4.17px;stroke-linecap:butt;stroke-linejoin:miter;stroke-miterlimit:3;"/>
            <rect x="149.042" y="463.326" width="1505.916" height="67.311" style="fill:none;stroke:rgb(45,41,38);stroke-width:4.17px;stroke-linecap:butt;stroke-linejoin:miter;stroke-miterlimit:3;"/>
            <g transform="matrix(1,0,0,1,-738.521856,-2700.123615)">
                <text x="990.355px" y="3299.259px" style="font-family:'DejaVuSans-Oblique', 'DejaVu Sans', sans-serif;font-style:italic;font-size:31.25px;fill:rgb(0,119,207);">Inst.</text>
                <g transform="matrix(31.25,0,0,31.25,1207.081653,3299.258802)">
                </g>
                <g transform="matrix(31.25,0,0,31.25,1218.364676,3299.258802)">
                </g>
                <text x="1163.792px" y="3299.259px" style="font-family:'DejaVuSans-Oblique', 'DejaVu Sans', sans-serif;font-style:italic;font-size:31.25px;fill:rgb(0,119,207);">Deﬁninition</text>
                <text x="990.355px" y="3351.342px" style="font-family:'DejaVuSans', 'DejaVu Sans', sans-serif;font-size:31.25px;fill:rgb(45,41,38);"><tspan x="990.355px " y="3351.342px ">Z</tspan>00 <tspan x="1163.792px " y="3351.342px ">S</tspan>TOP</text>
                <text x="990.355px" y="3403.425px" style="font-family:'DejaVuSans', 'DejaVu Sans', sans-serif;font-size:31.25px;fill:rgb(45,41,38);"><tspan x="990.355px " y="3403.425px ">Z</tspan>01 <tspan x="1163.792px " y="3403.425px ">S</tspan>TOP</text>
                <text x="990.355px" y="3455.509px" style="font-family:'DejaVuSans', 'DejaVu Sans', sans-serif;font-size:31.25px;fill:rgb(45,41,38);"><tspan x="990.355px " y="3455.509px ">Z</tspan>bs <tspan x="1163.792px " y="3455.509px ">S</tspan>ENSE BR<tspan x="1318.15px 1339.528px " y="3455.509px 3455.509px ">AN</tspan>CE SWIT<tspan x="1491.612px 1513.432px " y="3455.509px 3455.509px ">CH</tspan></text>
                <text x="916.292px" y="3507.592px" style="font-family:'DejaVuSans', 'DejaVu Sans', sans-serif;font-size:31.25px;fill:rgb(45,41,38);">800 <tspan x="990.355px " y="3507.592px ">Z</tspan>bs <tspan x="1163.792px " y="3507.592px ">S</tspan>ENSE B<tspan x="1297.154px 1316.991px " y="3507.592px 3507.592px ">S </tspan>&amp; O<tspan x="1385.274px 1406.651px " y="3507.592px 3507.592px ">VE</tspan>RFL<tspan x="1482.381px 1506.978px " y="3507.592px 3507.592px ">OW</tspan></text>
                <text x="916.292px" y="3559.675px" style="font-family:'DejaVuSans', 'DejaVu Sans', sans-serif;font-size:31.25px;fill:rgb(45,41,38);">800 Z02 <tspan x="1163.792px " y="3559.675px ">S</tspan>ENSE O<tspan x="1300.313px 1321.69px " y="3559.675px 3559.675px ">VE</tspan>RFL<tspan x="1397.42px 1422.017px " y="3559.675px 3559.675px ">OW</tspan></text>
                <text x="916.292px" y="3611.759px" style="font-family:'DejaVuSans', 'DejaVu Sans', sans-serif;font-size:31.25px;fill:rgb(45,41,38);">800 <tspan x="990.355px " y="3611.759px ">Z</tspan>00 <tspan x="1163.792px " y="3611.759px ">S</tspan>ENSE O<tspan x="1300.313px 1321.69px " y="3611.759px 3611.759px ">VE</tspan>RFL<tspan x="1397.42px 1422.017px " y="3611.759px 3611.759px ">OW</tspan> &amp; STOP</text>
                <text x="916.292px" y="3663.842px" style="font-family:'DejaVuSans', 'DejaVu Sans', sans-serif;font-size:31.25px;fill:rgb(45,41,38);">800 <tspan x="990.355px " y="3663.842px ">Z</tspan>01 <tspan x="1163.792px " y="3663.842px ">S</tspan>ENSE O<tspan x="1300.313px 1321.69px " y="3663.842px 3663.842px ">VE</tspan>RFL<tspan x="1397.42px 1422.017px " y="3663.842px 3663.842px ">OW</tspan> &amp; STOP</text>
                <text x="990.355px" y="3715.925px" style="font-family:'DejaVuSans', 'DejaVu Sans', sans-serif;font-size:31.25px;fill:rgb(45,41,38);"><tspan x="990.355px " y="3715.925px ">B</tspan>mm <tspan x="1163.792px " y="3715.925px ">B</tspan>RING</text>
                <text x="990.355px" y="3768.009px" style="font-family:'DejaVuSans', 'DejaVu Sans', sans-serif;font-size:31.25px;fill:rgb(45,41,38);"><tspan x="990.355px " y="3768.009px ">Y</tspan>mm <tspan x="1163.792px " y="3768.009px ">S</tspan>TORE ADDRESS</text>
                <text x="990.355px" y="3820.092px" style="font-family:'DejaVuSans', 'DejaVu Sans', sans-serif;font-size:31.25px;fill:rgb(45,41,38);"><tspan x="990.355px " y="3820.092px ">R</tspan>mm <tspan x="1163.792px " y="3820.092px ">S</tspan>ET RETURN ADDRESS</text>
                <text x="990.355px" y="3872.175px" style="font-family:'DejaVuSans', 'DejaVu Sans', sans-serif;font-size:31.25px;fill:rgb(45,41,38);"><tspan x="990.355px " y="3872.175px ">I</tspan>†† <tspan x="1163.792px " y="3872.175px ">I</tspan>NPUT, 6-<tspan x="1307.103px 1328.542px " y="3872.175px 3872.175px ">BI</tspan>T</text>
                <text x="916.292px" y="3924.259px" style="font-family:'DejaVuSans', 'DejaVu Sans', sans-serif;font-size:31.25px;fill:rgb(45,41,38);">800 <tspan x="990.355px " y="3924.259px ">I</tspan>†† <tspan x="1163.792px " y="3924.259px ">I</tspan>NPUT, 4-<tspan x="1307.103px 1328.542px " y="3924.259px 3924.259px ">BI</tspan>T</text>
                <text x="990.355px" y="3976.342px" style="font-family:'DejaVuSans', 'DejaVu Sans', sans-serif;font-size:31.25px;fill:rgb(45,41,38);"><tspan x="990.355px " y="3976.342px ">I</tspan>62 <tspan x="1163.792px " y="3976.342px ">I</tspan>NPUT SHIF<tspan x="1337.102px 1356.191px " y="3976.342px 3976.342px ">T,</tspan> 6-<tspan x="1406.102px 1427.541px " y="3976.342px 3976.342px ">BI</tspan>T</text>
                <text x="916.292px" y="4028.425px" style="font-family:'DejaVuSans', 'DejaVu Sans', sans-serif;font-size:31.25px;fill:rgb(45,41,38);">800 <tspan x="990.355px " y="4028.425px ">I</tspan>62 <tspan x="1163.792px " y="4028.425px ">I</tspan>NPUT SHIF<tspan x="1337.102px 1356.191px " y="4028.425px 4028.425px ">T,</tspan> 4-<tspan x="1406.102px 1427.541px " y="4028.425px 4028.425px ">BI</tspan>T</text>
                <text x="1731.3px" y="3299.259px" style="font-family:'DejaVuSans-Oblique', 'DejaVu Sans', sans-serif;font-style:italic;font-size:31.25px;fill:rgb(0,119,207);">Inst.</text>
                <g transform="matrix(31.25,0,0,31.25,1948.026976,3299.258802)">
                </g>
                <g transform="matrix(31.25,0,0,31.25,1959.309998,3299.258802)">
                </g>
                <text x="1904.738px" y="3299.259px" style="font-family:'DejaVuSans-Oblique', 'DejaVu Sans', sans-serif;font-style:italic;font-size:31.25px;fill:rgb(0,119,207);">Deﬁninition</text>
                <text x="1731.3px" y="3351.342px" style="font-family:'DejaVuSans', 'DejaVu Sans', sans-serif;font-size:31.25px;fill:rgb(45,41,38);"><tspan x="1731.3px " y="3351.342px ">D</tspan>mm <tspan x="1904.738px " y="3351.342px ">D</tspan>IVIDE</text>
                <text x="1731.3px" y="3403.425px" style="font-family:'DejaVuSans', 'DejaVu Sans', sans-serif;font-size:31.25px;fill:rgb(45,41,38);"><tspan x="1731.3px " y="3403.425px ">N</tspan>mm <tspan x="1904.738px " y="3403.425px ">M</tspan>UL<tspan x="1967.68px 1986.769px " y="3403.425px 3403.425px ">TI</tspan>PL<tspan x="2028.09px 2047.179px 2062.804px 2083.22px 2102.599px 2123.976px " y="3403.425px 3403.425px 3403.425px 3403.425px 3403.425px 3403.425px ">Y–SAVE</tspan> RIGHT</text>
                <text x="1731.3px" y="3455.509px" style="font-family:'DejaVuSans', 'DejaVu Sans', sans-serif;font-size:31.25px;fill:rgb(45,41,38);"><tspan x="1731.3px " y="3455.509px ">M</tspan>mm <tspan x="1904.738px " y="3455.509px ">M</tspan>UL<tspan x="1967.68px 1986.769px " y="3455.509px 3455.509px ">TI</tspan>PL<tspan x="2028.09px 2047.179px 2062.804px 2083.22px 2102.599px 2123.976px " y="3455.509px 3455.509px 3455.509px 3455.509px 3455.509px 3455.509px ">Y–SAVE</tspan> LEF<tspan x="2208.235px " y="3455.509px ">T</tspan></text>
                <text x="1731.3px" y="3507.592px" style="font-family:'DejaVuSans', 'DejaVu Sans', sans-serif;font-size:31.25px;fill:rgb(45,41,38);"><tspan x="1731.3px " y="3507.592px ">P</tspan>†† <tspan x="1904.738px " y="3507.592px ">P</tspan>RINT, 6-<tspan x="2046.889px 2068.327px " y="3507.592px 3507.592px ">BI</tspan>T</text>
                <text x="1657.238px" y="3559.675px" style="font-family:'DejaVuSans', 'DejaVu Sans', sans-serif;font-size:31.25px;fill:rgb(45,41,38);">800 <tspan x="1731.3px " y="3559.675px ">P</tspan>†† <tspan x="1904.738px " y="3559.675px ">P</tspan>RINT, 4-<tspan x="2046.889px 2068.327px " y="3559.675px 3559.675px ">BI</tspan>T</text>
                <text x="1731.3px" y="3611.759px" style="font-family:'DejaVuSans', 'DejaVu Sans', sans-serif;font-size:31.25px;fill:rgb(45,41,38);"><tspan x="1731.3px " y="3611.759px ">E</tspan>mm <tspan x="1904.738px 1924.483px 1945.341px 1964.43px 1984.877px 2005.705px 2027.525px " y="3611.759px 3611.759px 3611.759px 3611.759px 3611.759px 3611.759px 3611.759px ">EXTRACT</tspan></text>
                <text x="1731.3px" y="3663.842px" style="font-family:'DejaVuSans', 'DejaVu Sans', sans-serif;font-size:31.25px;fill:rgb(45,41,38);"><tspan x="1731.3px " y="3663.842px ">U</tspan>mm <tspan x="1904.738px " y="3663.842px ">U</tspan>NCODITIONAL TR<tspan x="2195.219px 2216.597px " y="3663.842px 3663.842px ">AN</tspan>SFER</text>
                <text x="1731.3px" y="3715.925px" style="font-family:'DejaVuSans', 'DejaVu Sans', sans-serif;font-size:31.25px;fill:rgb(45,41,38);"><tspan x="1731.3px " y="3715.925px ">T</tspan>mm <tspan x="1904.738px " y="3715.925px ">C</tspan>ONDITIONAL TR<tspan x="2172.346px 2193.724px " y="3715.925px 3715.925px ">AN</tspan>SFER</text>
                <text x="1657.238px" y="3768.009px" style="font-family:'DejaVuSans', 'DejaVu Sans', sans-serif;font-size:31.25px;fill:rgb(45,41,38);">800 <tspan x="1731.3px " y="3768.009px ">T</tspan>mm <tspan x="1904.738px 1923.827px 1944.273px 1965.651px " y="3768.009px 3768.009px 3768.009px 3768.009px ">TRAN</tspan>SFER CONTROL</text>
                <text x="1731.3px" y="3820.092px" style="font-family:'DejaVuSans', 'DejaVu Sans', sans-serif;font-size:31.25px;fill:rgb(45,41,38);"><tspan x="1731.3px " y="3820.092px ">H</tspan>mm <tspan x="1904.738px " y="3820.092px ">H</tspan>OLD</text>
                <text x="1731.3px" y="3872.175px" style="font-family:'DejaVuSans', 'DejaVu Sans', sans-serif;font-size:31.25px;fill:rgb(45,41,38);"><tspan x="1731.3px " y="3872.175px ">C</tspan>mm <tspan x="1904.738px " y="3872.175px ">C</tspan>LEAR</text>
                <text x="1731.3px" y="3924.259px" style="font-family:'DejaVuSans', 'DejaVu Sans', sans-serif;font-size:31.25px;fill:rgb(45,41,38);"><tspan x="1731.3px " y="3924.259px ">A</tspan>mm <tspan x="1904.738px " y="3924.259px ">A</tspan>DD</text>
                <text x="1731.3px" y="3976.342px" style="font-family:'DejaVuSans', 'DejaVu Sans', sans-serif;font-size:31.25px;fill:rgb(45,41,38);"><tspan x="1731.3px " y="3976.342px ">S</tspan>mm <tspan x="1904.738px " y="3976.342px ">S</tspan>UBTR<tspan x="2008.421px 2029.25px 2051.07px " y="3976.342px 3976.342px 3976.342px ">ACT</tspan></text>
                <g transform="matrix(31.25,0,0,31.25,2237.074217,4028.425469)">
                </g>
                <text x="1731.3px" y="4028.425px" style="font-family:'DejaVuSans', 'DejaVu Sans', sans-serif;font-size:31.25px;fill:rgb(45,41,38);"><tspan x="1731.3px " y="4028.425px ">m</tspan>m=memory <tspan x="2045.363px " y="4028.425px ">†</tspan>†=I/O Code</text>
            </g>
        </g>
        <g>
            <rect x="947.1" y="154.97" width="432.465" height="267.409" style="fill:none;stroke:rgb(45,41,38);stroke-width:4.17px;stroke-linecap:butt;stroke-linejoin:miter;stroke-miterlimit:3;"/>
            <g transform="matrix(1,0,0,1,-201.767,-2677.288613)">
                <text x="1249.918px" y="2877.842px" style="font-family:'DejaVuSans', 'DejaVu Sans', sans-serif;font-size:31.25px;fill:rgb(0,119,207);">INPUT<tspan x="1340.449px 1352.595px 1377.192px " y="2877.842px 2877.842px 2877.842px ">-OU</tspan>TPUT</text>
                <text x="1246.119px" y="2911.176px" style="font-family:'DejaVuSans', 'DejaVu Sans', sans-serif;font-size:31.25px;fill:rgb(0,119,207);">SELECT CODES</text>
                <text x="1187.542px" y="2944.509px" style="font-family:'DejaVuSans', 'DejaVu Sans', sans-serif;font-size:31.25px;">00—Model 141 R<tspan x="1452.205px 1471.431px " y="2944.509px 2944.509px ">ea</tspan>der</text>
                <text x="1187.542px" y="2977.842px" style="font-family:'DejaVuSans', 'DejaVu Sans', sans-serif;font-size:31.25px;">06—Model 151 R<tspan x="1452.205px 1471.431px " y="2977.842px 2977.842px ">ea</tspan>der</text>
                <text x="1187.542px" y="3011.176px" style="font-family:'DejaVuSans', 'DejaVu Sans', sans-serif;font-size:31.25px;">02—Model 121 T<tspan x="1445.812px 1464.962px " y="3011.176px 3011.176px ">ap</tspan>e</text>
                <text x="1277.542px" y="3044.509px" style="font-family:'DejaVuSans', 'DejaVu Sans', sans-serif;font-size:31.25px;"><tspan x="1277.542px 1291.763px 1310.256px " y="3044.509px 3044.509px 3044.509px ">Typ</tspan>ewriter</text>
                <g transform="matrix(31.25,0,0,31.25,1420.436528,3077.842323)">
                </g>
                <text x="1187.542px" y="3077.842px" style="font-family:'DejaVuSans', 'DejaVu Sans', sans-serif;font-size:31.25px;">62—Input Shif<tspan x="1408.184px " y="3077.842px ">t</tspan></text>
            </g>
        </g>
        <g>
            <rect x="412.018" y="154.97" width="466.056" height="267.409" style="fill:none;stroke:rgb(45,41,38);stroke-width:4.17px;stroke-linecap:butt;stroke-linejoin:miter;stroke-miterlimit:3;"/>
            <g transform="matrix(1,0,0,1,-739.06567,-2677.288613)">
                <text x="1170.126px" y="2877.842px" style="font-family:'DejaVuSans', 'DejaVu Sans', sans-serif;font-size:31.25px;fill:rgb(0,119,207);">CONST<tspan x="1276.419px 1297.796px " y="2877.842px 2877.842px ">AN</tspan>TS FOR PRINTING</text>
                <text x="1190.954px" y="2911.176px" style="font-family:'DejaVuSans', 'DejaVu Sans', sans-serif;font-size:31.25px;fill:rgb(0,119,207);">TYPEWRITER CONTROLS</text>
                <g transform="matrix(31.25,0,0,31.25,1404.184697,2944.50899)">
                </g>
                <text x="1157.542px" y="2944.509px" style="font-family:'DejaVuSans', 'DejaVu Sans', sans-serif;font-size:31.25px;">Car<tspan x="1210.81px 1223.658px " y="2944.509px 2944.509px ">ri</tspan>age R<tspan x="1320.795px 1340.021px " y="2944.509px 2944.509px ">et</tspan>ur<tspan x="1384.379px 1446.825px " y="2944.509px 2944.509px ">n4</tspan>0000000</text>
                <g transform="matrix(31.25,0,0,31.25,1210.443853,2977.842323)">
                </g>
                <text x="1157.542px" y="2977.842px" style="font-family:'DejaVuSans', 'DejaVu Sans', sans-serif;font-size:31.25px;">T<tspan x="1171.458px 1190.607px 1446.825px " y="2977.842px 2977.842px 2977.842px ">ab6</tspan>0000000</text>
                <g transform="matrix(31.25,0,0,31.25,1252.771734,3011.175656)">
                </g>
                <g transform="matrix(31.25,0,0,31.25,1605.882378,3011.175656)">
                </g>
                <text x="1157.542px" y="3011.176px" style="font-family:'DejaVuSans', 'DejaVu Sans', sans-serif;font-size:31.25px;">Space<tspan x="1477.373px " y="3011.176px ">J</tspan>000000</text>
            </g>
        </g>
        <g>
            <circle cx="902" cy="902" r="30" style="fill:none;stroke:rgb(45,41,38);stroke-width:2.08px;"/>
            <path d="M864.5,902L939.5,902" style="fill:none;stroke:rgb(45,41,38);stroke-width:2.08px;"/>
            <path d="M902,939.5L902,864.5" style="fill:none;stroke:rgb(45,41,38);stroke-width:2.08px;"/>
        </g>
    </g>
</svg>
